<?xml version="1.0" standalone="no"?>
<!DOCTYPE svg PUBLIC "-//W3C//DTD SVG 20010904//EN"
 "http://www.w3.org/TR/2001/REC-SVG-20010904/DTD/svg10.dtd">
<svg version="1.0" xmlns="http://www.w3.org/2000/svg"
 width="1500.000000pt" height="600.000000pt" viewBox="0 0 1500.000000 600.000000"
 preserveAspectRatio="xMidYMid meet">

<g transform="translate(0.000000,600.000000) scale(0.100000,-0.100000)"
fill="#000000" stroke="none">
<path d="M3606 5383 c-2 -2 -19 -6 -37 -8 -63 -8 -99 -17 -105 -27 -3 -5 -13
-3 -22 4 -13 11 -15 11 -8 -2 4 -8 1 -7 -8 4 -11 14 -32 19 -92 22 -46 2 -83
-1 -90 -7 -9 -8 -24 -7 -48 1 -20 6 -40 9 -46 5 -6 -4 -23 -9 -38 -11 -15 -3
-43 -9 -62 -14 -19 -5 -39 -9 -44 -9 -5 0 -12 -3 -15 -8 -3 -4 -27 -19 -54
-32 -30 -15 -46 -30 -45 -40 2 -9 -3 -15 -11 -13 -15 3 -41 -16 -41 -30 0 -5
6 -6 13 -2 6 4 3 -2 -7 -14 -23 -26 -34 -29 -15 -4 7 9 2 6 -12 -8 -32 -33
-53 -66 -104 -164 -23 -45 -46 -90 -53 -101 -31 -57 -66 -176 -101 -350 -5
-27 -12 -180 -14 -340 -3 -159 -2 -267 3 -240 4 28 8 41 9 30 1 -11 4 -56 7
-100 4 -44 10 -84 14 -90 4 -5 11 -40 15 -77 4 -41 11 -65 17 -62 6 4 8 -2 3
-15 -3 -11 -2 -21 3 -21 5 0 15 -14 22 -31 8 -19 16 -26 20 -19 5 7 9 4 13
-10 9 -34 31 -18 38 26 4 27 7 32 8 14 2 -14 5 -19 8 -12 6 15 53 16 53 1 0
-6 7 -8 15 -5 10 3 18 -1 22 -12 4 -9 15 -23 25 -30 20 -15 23 -47 8 -86 -5
-14 -6 -26 -2 -26 8 0 42 106 42 130 0 23 51 101 85 131 18 16 36 40 39 54 5
21 12 25 41 25 18 0 36 4 39 9 7 11 55 12 81 2 86 -35 159 -41 169 -15 3 9 6
29 6 45 0 16 5 29 12 29 6 0 4 8 -7 20 -11 12 -15 26 -10 37 8 20 10 70 3 93
-3 8 -10 31 -16 50 -8 22 -8 38 -2 44 7 7 10 1 10 -16 0 -15 5 -30 10 -33 6
-4 8 -10 5 -15 -3 -5 -1 -11 5 -15 5 -3 10 -16 10 -28 0 -12 7 -31 15 -41 15
-19 15 -19 15 3 0 13 -6 37 -13 54 -15 35 -37 100 -37 109 0 3 11 1 25 -5 19
-9 25 -18 22 -34 -2 -13 1 -23 7 -23 7 0 18 -22 25 -50 7 -27 17 -52 21 -55 4
-3 6 4 3 15 -8 29 4 25 21 -7 l15 -28 -6 35 c-3 19 -12 52 -20 74 -15 46 -17
70 -3 61 6 -3 7 1 4 9 -3 9 -10 16 -14 16 -4 0 -7 12 -7 28 0 15 -8 59 -17 97
-55 227 -67 364 -40 480 32 140 57 225 66 225 4 0 19 25 33 55 14 31 32 58 41
62 8 3 19 16 24 28 5 13 22 29 39 36 17 8 31 17 31 21 0 8 6 8 106 13 95 4
154 -24 250 -122 78 -80 78 -81 128 -208 51 -132 52 -141 25 -165 -13 -10 -30
-19 -37 -20 -7 0 -11 -4 -8 -8 3 -5 -4 -15 -15 -22 -14 -11 -19 -26 -19 -58 0
-51 22 -79 65 -84 22 -2 31 -9 33 -25 2 -16 -2 -23 -12 -23 -25 0 -19 -15 19
-49 47 -41 49 -90 6 -121 -16 -11 -35 -19 -41 -18 -7 2 -17 -4 -22 -13 -16
-23 17 -88 41 -82 21 5 32 -16 26 -48 -7 -33 -12 -33 -18 0 -5 22 -14 32 -41
41 -42 14 -65 8 -131 -34 -28 -17 -58 -35 -68 -41 -33 -18 -23 -29 50 -65 72
-34 88 -52 58 -64 -24 -9 -17 -26 10 -26 14 0 25 4 25 8 0 11 49 14 68 3 13
-7 12 -10 -7 -21 -22 -11 -22 -12 -5 -31 9 -10 13 -19 8 -19 -5 0 -10 -19 -11
-43 -2 -55 -26 -110 -55 -129 -31 -20 -64 -27 -181 -37 -53 -5 -103 -13 -110
-19 -6 -5 -40 -24 -74 -41 -49 -25 -63 -37 -68 -61 -4 -17 -16 -37 -28 -45
-25 -18 -5 -20 26 -3 12 6 32 12 44 14 16 2 20 -2 16 -14 -6 -15 -4 -15 14 1
14 12 21 30 20 52 -1 53 22 71 90 69 32 -1 63 1 68 4 6 4 39 8 74 9 36 2 67 7
70 12 9 13 53 25 84 23 15 -1 27 2 27 8 0 5 7 10 15 10 8 0 15 7 15 15 0 8 6
15 13 15 16 0 73 131 81 186 10 66 14 83 25 101 8 14 11 15 11 3 1 -10 4 -9 9
5 8 20 6 255 -4 374 -13 171 -85 429 -177 631 -32 71 -104 191 -122 202 -6 4
-7 8 -1 8 11 0 -25 27 -70 52 -16 9 -29 21 -28 27 2 6 -4 8 -14 4 -10 -4 -14
-2 -9 5 3 6 1 14 -5 18 -8 4 -9 3 -5 -4 4 -7 5 -12 1 -12 -7 0 -48 23 -55 31
-14 16 -182 44 -194 32z m-429 -19 c-3 -3 -12 -4 -19 -1 -8 3 -5 6 6 6 11 1
17 -2 13 -5z m-233 -89 c-10 -8 -23 -15 -28 -15 -6 0 -1 7 10 15 10 8 23 15
28 15 6 0 1 -7 -10 -15z m1206 -717 c0 -31 -2 -33 -32 -33 -26 0 -33 4 -34 20
-1 29 15 45 42 45 20 0 24 -5 24 -32z m-780 -330 c20 -76 20 -82 1 -43 -11 22
-20 51 -20 64 -1 32 9 21 19 -21z m37 -40 c-3 -8 -6 -5 -6 6 -1 11 2 17 5 13
3 -3 4 -12 1 -19z m-790 -470 c-3 -8 -6 -5 -6 6 -1 11 2 17 5 13 3 -3 4 -12 1
-19z m1033 -177 c0 -12 -20 -25 -27 -18 -7 7 6 27 18 27 5 0 9 -4 9 -9z"/>
<path d="M3687 4836 c-15 -7 -25 -15 -22 -18 3 -3 -10 -9 -30 -12 -19 -4 -33
-11 -30 -15 2 -5 22 -3 43 5 44 15 119 2 179 -29 18 -10 36 -17 39 -16 4 0 10
-4 14 -10 9 -15 88 -22 96 -9 4 6 0 16 -9 23 -10 7 -17 17 -17 22 0 11 -109
58 -117 50 -3 -3 -15 -2 -27 3 -42 15 -91 18 -119 6z"/>
<path d="M3840 4685 c-5 -14 -17 -25 -26 -25 -16 0 -15 -2 1 -20 18 -20 18
-21 -1 -35 -21 -16 -34 -19 -34 -7 0 4 -17 9 -37 10 -21 2 -53 7 -70 13 -31
10 -53 6 -53 -10 0 -4 15 -11 33 -16 17 -6 36 -20 42 -32 13 -30 58 -47 123
-46 60 1 68 7 67 55 0 18 4 36 8 39 15 11 11 67 -6 83 -22 23 -36 20 -47 -9z"/>
<path d="M4005 4303 c-21 -15 -34 -28 -27 -31 6 -2 22 4 34 12 12 9 37 16 55
16 23 0 33 5 33 15 0 24 -51 18 -95 -12z"/>
<path d="M3033 3527 c0 -8 6 -14 13 -14 7 0 10 6 7 14 -3 7 -8 13 -12 13 -4 0
-8 -6 -8 -13z"/>
<path d="M4431 2024 c0 -11 3 -14 6 -6 3 7 2 16 -1 19 -3 4 -6 -2 -5 -13z"/>
<path d="M6336 1928 c-41 -37 -71 -58 -74 -50 -3 9 -7 8 -19 -3 -20 -21 -34
-19 -40 6 -4 15 -8 17 -14 8 -10 -17 8 -39 32 -39 23 0 28 -36 11 -80 -22 -54
-43 -141 -36 -151 3 -5 0 -9 -5 -9 -6 0 -11 -4 -11 -10 0 -5 -10 -20 -22 -34
-13 -13 -48 -53 -78 -89 -72 -85 -87 -89 -95 -28 -3 25 -10 53 -15 62 -10 19
11 65 28 61 7 -1 12 5 12 13 0 9 7 30 16 48 l17 32 -23 -20 c-48 -41 -61 -56
-55 -65 4 -6 2 -10 -3 -10 -5 0 -8 -15 -7 -32 2 -32 -8 -48 -30 -48 -5 1 -3 6
6 13 11 8 14 18 8 32 -4 11 -8 14 -10 8 -3 -25 -4 -28 -12 -40 -5 -7 -5 -13 0
-13 4 0 1 -5 -7 -10 -11 -7 -11 -10 -2 -10 9 0 11 -13 6 -50 -4 -29 -2 -55 3
-62 6 -7 9 -23 8 -35 -1 -18 1 -20 17 -12 14 8 18 6 18 -6 0 -15 1 -15 16 -1
8 9 21 16 27 16 17 0 77 72 77 92 0 9 21 45 48 80 26 35 53 75 60 89 15 28 44
61 86 96 14 13 26 29 26 37 0 8 17 47 37 88 21 40 38 85 38 100 l0 27 -22 -27
c-11 -15 -24 -24 -27 -21 -9 8 33 59 48 59 13 0 46 31 46 43 0 16 -19 3 -84
-55z m-11 -88 c-3 -5 -10 -10 -16 -10 -5 0 -9 5 -9 10 0 6 7 10 16 10 8 0 12
-4 9 -10z"/>
<path d="M4798 1881 c-59 -20 -70 -31 -31 -31 17 0 35 -6 41 -12 13 -16 21
-137 24 -340 1 -87 5 -158 9 -158 8 0 25 -70 34 -142 3 -27 10 -48 16 -48 5 0
9 -11 9 -25 0 -26 7 -30 27 -17 10 6 8 20 -6 62 -26 77 -39 165 -46 310 -4 69
-11 142 -16 163 -5 20 -10 87 -10 147 0 61 -1 109 -2 109 -1 -1 -23 -9 -49
-18z"/>
<path d="M4440 1848 c0 -9 5 -20 10 -23 13 -8 13 5 0 25 -8 13 -10 13 -10 -2z"/>
<path d="M5820 1843 c0 -13 5 -23 10 -23 13 0 13 11 0 30 -8 12 -10 11 -10 -7z"/>
<path d="M1561 1805 c-1 -39 64 -105 102 -105 l25 0 -26 60 c-25 57 -28 59
-37 38 -13 -30 -38 -25 -52 10 l-11 27 -1 -30z"/>
<path d="M4470 1792 c1 -20 16 -29 27 -17 9 10 8 14 -8 18 -10 3 -19 2 -19 -1z"/>
<path d="M5791 1749 c1 -24 5 -55 9 -69 6 -16 7 -2 4 40 -5 74 -14 95 -13 29z"/>
<path d="M5911 1771 c0 -8 -8 -23 -18 -33 -17 -19 -8 -24 15 -9 8 5 12 19 9
32 -2 13 -5 18 -6 10z"/>
<path d="M5722 1720 c1 -22 5 -40 10 -40 5 0 8 -6 7 -12 -3 -26 1 -61 7 -56 8
9 -7 148 -17 148 -5 0 -8 -18 -7 -40z"/>
<path d="M4491 1730 c0 -8 4 -22 9 -30 12 -18 12 -2 0 25 -6 13 -9 15 -9 5z"/>
<path d="M5434 1653 c-21 -22 -5 -30 70 -36 58 -4 59 -4 36 13 -41 31 -88 41
-106 23z"/>
<path d="M5801 1606 c-1 -37 2 -47 10 -39 8 8 8 22 1 50 l-10 38 -1 -49z"/>
<path d="M5400 1598 c0 -6 -10 -22 -22 -35 -12 -13 -16 -23 -10 -23 6 0 9 -6
7 -13 -5 -13 72 -43 83 -32 4 3 -4 8 -16 12 -12 3 -22 10 -22 15 0 6 9 7 23 3
12 -4 49 -10 82 -12 88 -6 99 -16 25 -23 l-65 -7 76 -1 76 -2 -7 45 c-4 25 -7
49 -8 52 0 4 -6 9 -13 12 -7 2 -9 -1 -5 -8 10 -15 -6 -14 -102 9 -97 23 -102
24 -102 8z"/>
<path d="M5750 1581 c0 -5 5 -13 10 -16 6 -3 10 -2 10 4 0 5 -4 13 -10 16 -5
3 -10 2 -10 -4z"/>
<path d="M4495 1515 c-4 -36 -3 -95 2 -133 10 -65 10 -63 12 66 0 72 -1 132
-3 132 -3 0 -8 -29 -11 -65z"/>
<path d="M5800 1533 c0 -12 -4 -23 -9 -25 -4 -1 -12 -14 -16 -27 -6 -19 -4
-23 8 -18 11 4 19 -3 26 -24 13 -37 24 -38 17 -1 -3 15 -9 45 -12 67 -7 45
-14 59 -14 28z"/>
<path d="M1602 1533 c-34 -3 -42 -8 -38 -20 3 -8 -3 -35 -14 -60 -24 -56 -25
-66 -3 -101 23 -36 32 -42 71 -42 l32 0 0 -92 c0 -84 -8 -164 -41 -423 -15
-115 5 -203 73 -315 71 -117 110 -154 178 -169 30 -7 71 -17 91 -22 51 -13
121 -11 141 5 28 21 82 125 111 214 35 106 42 195 27 362 -7 74 -15 184 -17
243 -4 99 -3 110 15 127 19 18 20 18 26 -12 3 -17 6 -74 7 -127 1 -53 4 -107
8 -121 l7 -25 15 23 c7 12 19 22 25 22 6 0 19 16 30 35 10 19 22 35 26 35 5 0
8 6 8 13 0 7 11 24 25 39 14 15 25 31 25 35 0 7 9 17 68 77 12 13 22 28 22 33
0 6 11 19 25 29 14 11 25 29 25 42 0 13 4 20 10 17 6 -3 7 1 4 9 -3 9 -14 16
-23 17 -10 0 -11 2 -3 6 6 2 12 9 12 14 0 6 -5 7 -12 3 -7 -5 -9 -2 -5 9 4 11
-1 18 -14 22 -11 4 -23 4 -26 1 -4 -3 -2 -6 4 -6 6 0 14 -7 17 -16 6 -14 4
-15 -10 -4 -13 12 -17 11 -25 -1 -8 -14 -10 -12 -13 14 -2 16 24 36 47 37 18
0 21 11 11 48 l-6 22 -197 -4 c-189 -5 -338 -15 -505 -35 -89 -10 -106 -7
-106 20 0 14 -7 19 -29 19 -16 0 -35 1 -43 3 -7 2 -33 2 -56 0z m123 -54 c21
-33 -33 -87 -72 -72 -11 4 -14 3 -9 -5 4 -7 2 -12 -3 -12 -6 0 -11 5 -11 10 0
6 -7 10 -15 10 -9 0 -15 9 -15 22 0 12 3 18 6 15 4 -4 20 5 36 18 31 26 72 33
83 14z m388 -32 c-2 -4 -8 -5 -13 -2 -5 3 -11 1 -15 -5 -9 -15 -45 -12 -51 5
-4 8 -1 22 6 30 10 12 16 11 45 -3 18 -9 31 -20 28 -25z m280 23 c6 0 2 -7 -9
-15 -10 -8 -26 -14 -34 -14 -9 0 -10 2 -3 5 7 3 9 13 6 21 -5 13 -2 15 11 10
10 -4 23 -7 29 -7z m-423 -263 c0 -18 -36 -50 -48 -43 -5 3 -12 15 -15 26 -3
11 -1 18 3 15 5 -3 11 -1 15 5 9 15 45 12 45 -3z m-19 -471 c-5 -19 -8 -59 -7
-90 1 -37 -3 -56 -11 -56 -6 0 -15 5 -18 10 -4 6 -11 7 -17 4 -8 -5 -9 -1 -4
11 6 16 32 211 43 325 9 92 18 71 21 -48 1 -68 -2 -138 -7 -156z m179 115 c-6
-22 -15 -41 -21 -41 -6 0 -7 -4 -4 -10 7 -11 -6 -13 -28 -4 -11 4 -13 13 -6
42 4 20 7 38 6 40 -5 8 49 30 56 23 5 -5 3 -27 -3 -50z m-50 -70 c0 -5 -7 -14
-15 -21 -16 -14 -18 -10 -9 14 6 17 24 22 24 7z"/>
<path d="M1926 759 c-13 -64 -16 -149 -6 -149 6 0 9 3 7 8 -3 4 -1 41 3 82 7
75 5 103 -4 59z"/>
<path d="M5786 1414 c-4 -9 -4 -19 -1 -22 2 -3 7 3 11 12 4 9 4 19 1 22 -2 3
-7 -3 -11 -12z"/>
<path d="M5574 1256 c-7 -7 -45 -19 -86 -26 -70 -11 -77 -11 -117 9 -64 33
-108 9 -62 -33 11 -10 17 -25 14 -37 -3 -10 0 -19 6 -19 6 0 11 -7 11 -15 0
-8 -7 -15 -15 -15 -8 0 -15 -9 -15 -20 0 -12 -7 -20 -17 -21 -43 -3 -48 -5
-45 -16 1 -7 -2 -13 -8 -13 -6 0 -10 -8 -10 -17 0 -15 -2 -16 -10 -3 -8 12
-10 11 -10 -5 0 -11 -9 -27 -20 -35 -11 -8 -20 -22 -20 -32 0 -10 -7 -18 -15
-18 -8 0 -15 -6 -15 -14 0 -23 -34 -76 -48 -76 -7 0 -11 -4 -8 -9 3 -5 -6 -21
-19 -35 -14 -15 -23 -32 -20 -37 4 -5 -3 -9 -15 -9 -12 0 -18 -4 -15 -10 3 -5
2 -10 -4 -10 -6 0 -23 -12 -39 -27 -39 -38 -85 -73 -94 -73 -4 0 -8 -7 -8 -15
0 -8 -7 -15 -16 -15 -11 0 -14 -5 -10 -16 5 -14 4 -15 -9 -4 -13 11 -19 8 -17
-11 0 -3 -16 -6 -36 -7 -20 -2 -42 -8 -49 -14 -9 -7 -13 -7 -13 1 0 14 -37 15
-42 1 -2 -6 -14 -4 -30 4 -23 12 -27 12 -32 0 -7 -18 -36 -6 -36 15 0 9 -4 21
-9 27 -13 15 -30 92 -37 174 -3 41 -8 84 -10 95 -2 11 -4 84 -4 163 0 78 -4
142 -8 142 -16 0 -29 -182 -20 -270 5 -47 12 -141 17 -210 9 -135 24 -206 61
-285 32 -70 38 -121 14 -128 -45 -14 -235 -57 -249 -57 -8 0 -47 -11 -87 -23
-117 -38 -148 -46 -233 -57 -319 -41 -629 -57 -1070 -54 -317 3 -375 8 -630
60 -105 21 -162 28 -153 19 4 -4 -11 -40 -32 -81 -22 -40 -40 -78 -40 -84 0
-7 456 -10 1464 -10 1452 0 1464 0 1459 20 -3 11 0 34 6 51 9 26 8 36 -3 48
-12 14 -12 21 0 50 8 18 14 43 14 54 0 20 -1 20 -13 2 -13 -17 -14 -16 -20 13
-4 18 -4 38 -1 45 6 16 -33 87 -47 87 -5 0 -7 11 -3 25 4 15 2 25 -5 25 -6 0
-11 7 -11 16 0 9 5 12 13 8 6 -4 9 -4 5 1 -4 4 -3 14 4 22 8 11 7 12 -6 7 -30
-12 -16 4 52 57 56 44 209 192 248 241 13 17 73 113 134 217 24 40 48 78 54
85 6 6 23 30 38 52 24 37 32 42 75 47 160 20 205 27 221 36 13 8 1 10 -47 11
-52 0 -68 4 -93 25 -34 28 -39 29 -54 11z"/>
<path d="M4512 1220 c0 -19 2 -27 5 -17 2 9 2 25 0 35 -3 9 -5 1 -5 -18z"/>
<path d="M5806 1231 c-3 -5 8 -11 25 -15 51 -10 76 -7 76 9 0 11 -12 15 -48
15 -26 0 -50 -4 -53 -9z"/>
<path d="M5020 140 c0 -5 5 -10 10 -10 6 0 10 5 10 10 0 6 -4 10 -10 10 -5 0
-10 -4 -10 -10z"/>
</g>
</svg>
